<svg width="541px" height="731px"
 viewBox="0.00 0.00 541.00 731.00" xmlns="http://www.w3.org/2000/svg" xmlns:xlink="http://www.w3.org/1999/xlink">
<g id="graph0" class="graph" transform="scale(1.0 1.0) rotate(0.0) translate(4.0 727.0)">
<polygon fill="white" stroke="none" points="-4,4 -4,-727 537,-727 537,4 -4,4"/>
<g id="clust1" class="cluster">
<title>cluster0</title>
<polygon fill="none" stroke="black" points="8,-8 8,-715 525,-715 525,-8 8,-8"/>
<text text-anchor="middle" x="266.5" y="-697.7" font-family="Times,serif" font-size="14.00">nestedIfStatements(String s)</text>
</g>
<!-- start1 -->
<g id="node1" class="node">
<title>start1</title>
<polygon fill="green" stroke="green" points="421,-682.5 367,-682.5 367,-646.5 421,-646.5 421,-682.5"/>
<text text-anchor="middle" x="394" y="-659.45" font-family="Times,serif" font-size="14.00" fill="white">start</text>
</g>
<!-- node0 -->
<g id="node2" class="node">
<title>node0</title>
<polygon fill="none" stroke="black" points="394,-609.5 286.64,-591.5 394,-573.5 501.36,-591.5 394,-609.5"/>
<text text-anchor="middle" x="394" y="-586.45" font-family="Times,serif" font-size="14.00">if (s.length() &gt; 5)</text>
</g>
<!-- start1&#45;&gt;node0 -->
<g id="edge1" class="edge">
<title>start1&#45;&gt;node0</title>
<path fill="none" stroke="black" d="M394,-646.31C394,-638.73 394,-629.6 394,-621.04"/>
<polygon fill="black" stroke="black" points="397.5,-621.04 394,-611.04 390.5,-621.04 397.5,-621.04"/>
</g>
<!-- node1 -->
<g id="node3" class="node">
<title>node1</title>
<polygon fill="none" stroke="black" points="477.38,-521 214.62,-521 214.62,-485 477.38,-485 477.38,-521"/>
<text text-anchor="middle" x="346" y="-497.95" font-family="Times,serif" font-size="14.00">System.out.println(&quot;String is greater than 5&quot;)</text>
</g>
<!-- node0&#45;&gt;node1 -->
<g id="edge2" class="edge">
<title>node0&#45;&gt;node1</title>
<path fill="none" stroke="black" d="M385.2,-574.63C378.44,-562.47 368.97,-545.39 361.02,-531.07"/>
<polygon fill="black" stroke="black" points="364.22,-529.62 356.31,-522.57 358.1,-533.01 364.22,-529.62"/>
<text text-anchor="middle" x="385.62" y="-542.2" font-family="Times,serif" font-size="14.00">then</text>
</g>
<!-- node6 -->
<g id="node8" class="node">
<title>node6</title>
<polygon fill="none" stroke="black" points="517.12,-125 336.88,-125 336.88,-89 517.12,-89 517.12,-125"/>
<text text-anchor="middle" x="427" y="-101.95" font-family="Times,serif" font-size="14.00">System.out.println(&quot;Outside&quot;)</text>
</g>
<!-- node0&#45;&gt;node6 -->
<g id="edge3" class="edge">
<title>node0&#45;&gt;node6</title>
<path fill="none" stroke="black" d="M426.83,-578.56C456.65,-565.34 496,-540.92 496,-504 496,-504 496,-504 496,-384.75 496,-285.03 507.36,-254.05 469,-162 464.88,-152.12 458.46,-142.51 451.87,-134.2"/>
<polygon fill="black" stroke="black" points="454.57,-131.97 445.44,-126.58 449.22,-136.48 454.57,-131.97"/>
<text text-anchor="middle" x="507.5" y="-336.45" font-family="Times,serif" font-size="14.00">else</text>
</g>
<!-- node2 -->
<g id="node4" class="node">
<title>node2</title>
<polygon fill="none" stroke="black" points="346,-448 282.06,-430 346,-412 409.94,-430 346,-448"/>
<text text-anchor="middle" x="346" y="-424.95" font-family="Times,serif" font-size="14.00">if (3 &gt; 5)</text>
</g>
<!-- node1&#45;&gt;node2 -->
<g id="edge4" class="edge">
<title>node1&#45;&gt;node2</title>
<path fill="none" stroke="black" d="M346,-484.81C346,-477.23 346,-468.1 346,-459.54"/>
<polygon fill="black" stroke="black" points="349.5,-459.54 346,-449.54 342.5,-459.54 349.5,-459.54"/>
</g>
<!-- node3 -->
<g id="node5" class="node">
<title>node3</title>
<polygon fill="none" stroke="black" points="439.75,-359.5 182.25,-359.5 182.25,-323.5 439.75,-323.5 439.75,-359.5"/>
<text text-anchor="middle" x="311" y="-336.45" font-family="Times,serif" font-size="14.00">System.out.println(&quot;This shouldn&#39;t happen&quot;)</text>
</g>
<!-- node2&#45;&gt;node3 -->
<g id="edge5" class="edge">
<title>node2&#45;&gt;node3</title>
<path fill="none" stroke="red" stroke-dasharray="1,5" d="M339.74,-413.54C334.89,-401.53 328.02,-384.57 322.22,-370.24"/>
<polygon fill="red" stroke="red" points="325.61,-369.27 318.61,-361.31 319.12,-371.9 325.61,-369.27"/>
<text text-anchor="middle" x="342.62" y="-380.7" font-family="Times,serif" font-size="14.00">then</text>
</g>
<!-- node2&#45;&gt;node6 -->
<g id="edge6" class="edge">
<title>node2&#45;&gt;node6</title>
<path fill="none" stroke="black" d="M372.17,-419.18C396.6,-408.51 431.81,-388.93 449,-359.5 471.19,-321.52 474.47,-204.18 462,-162 459.13,-152.3 453.91,-142.7 448.36,-134.35"/>
<polygon fill="black" stroke="black" points="451.36,-132.53 442.7,-126.42 445.66,-136.59 451.36,-132.53"/>
<text text-anchor="middle" x="478.5" y="-263.45" font-family="Times,serif" font-size="14.00">else</text>
</g>
<!-- node4 -->
<g id="node6" class="node">
<title>node4</title>
<polygon fill="none" stroke="black" points="311,-286.5 203.64,-268.5 311,-250.5 418.36,-268.5 311,-286.5"/>
<text text-anchor="middle" x="311" y="-263.45" font-family="Times,serif" font-size="14.00">if (s.length() &gt; 5)</text>
</g>
<!-- node3&#45;&gt;node4 -->
<g id="edge7" class="edge">
<title>node3&#45;&gt;node4</title>
<path fill="none" stroke="red" stroke-dasharray="1,5" d="M311,-323.31C311,-315.73 311,-306.6 311,-298.04"/>
<polygon fill="red" stroke="red" points="314.5,-298.04 311,-288.04 307.5,-298.04 314.5,-298.04"/>
</g>
<!-- node5 -->
<g id="node7" class="node">
<title>node5</title>
<polygon fill="none" stroke="black" points="420.25,-198 15.75,-198 15.75,-162 420.25,-162 420.25,-198"/>
<text text-anchor="middle" x="218" y="-174.95" font-family="Times,serif" font-size="14.00">System.out.println(&quot;This statement doesn&#39;t matter my parent is dead!&quot;)</text>
</g>
<!-- node4&#45;&gt;node5 -->
<g id="edge8" class="edge">
<title>node4&#45;&gt;node5</title>
<path fill="none" stroke="red" stroke-dasharray="1,5" d="M295.22,-252.83C281.46,-240.02 261.18,-221.16 244.86,-205.98"/>
<polygon fill="red" stroke="red" points="247.56,-203.71 237.85,-199.46 242.79,-208.84 247.56,-203.71"/>
<text text-anchor="middle" x="283.62" y="-219.2" font-family="Times,serif" font-size="14.00">then</text>
</g>
<!-- node4&#45;&gt;node6 -->
<g id="edge9" class="edge">
<title>node4&#45;&gt;node6</title>
<path fill="none" stroke="red" stroke-dasharray="1,5" d="M348.95,-256.41C376.55,-246.13 411.95,-227.83 429,-198 439.61,-179.44 438.31,-155.01 434.8,-136.29"/>
<polygon fill="red" stroke="red" points="438.25,-135.68 432.67,-126.68 431.41,-137.2 438.25,-135.68"/>
<text text-anchor="middle" x="447.5" y="-174.95" font-family="Times,serif" font-size="14.00">else</text>
</g>
<!-- node5&#45;&gt;node6 -->
<g id="edge10" class="edge">
<title>node5&#45;&gt;node6</title>
<path fill="none" stroke="red" stroke-dasharray="1,5" d="M269.39,-161.54C298.37,-151.7 334.76,-139.33 365.28,-128.97"/>
<polygon fill="red" stroke="red" points="366.03,-132.41 374.37,-125.88 363.78,-125.78 366.03,-132.41"/>
</g>
<!-- end1 -->
<g id="node9" class="node">
<title>end1</title>
<polygon fill="red" stroke="red" points="454,-52 400,-52 400,-16 454,-16 454,-52"/>
<text text-anchor="middle" x="427" y="-28.95" font-family="Times,serif" font-size="14.00" fill="white">end</text>
</g>
<!-- node6&#45;&gt;end1 -->
<g id="edge11" class="edge">
<title>node6&#45;&gt;end1</title>
<path fill="none" stroke="black" d="M427,-88.81C427,-81.23 427,-72.1 427,-63.54"/>
<polygon fill="black" stroke="black" points="430.5,-63.54 427,-53.54 423.5,-63.54 430.5,-63.54"/>
</g>
</g>
</svg>
