<?xml version="1.0" encoding="UTF-8" standalone="no"?>
<!DOCTYPE svg PUBLIC "-//W3C//DTD SVG 1.1//EN"
 "http://www.w3.org/Graphics/SVG/1.1/DTD/svg11.dtd">
<!-- Generated by graphviz version 10.0.1 (20240210.2158)
 -->
<!-- Pages: 1 -->
<svg width="281pt" height="439pt"
 viewBox="0.00 0.00 280.99 439.00" xmlns="http://www.w3.org/2000/svg" xmlns:xlink="http://www.w3.org/1999/xlink">
<g id="graph0" class="graph" transform="scale(1 1) rotate(0) translate(4 435)">
<polygon fill="white" stroke="none" points="-4,4 -4,-435 276.99,-435 276.99,4 -4,4"/>
<g id="clust1" class="cluster">
<title>cluster_01</title>
<polygon fill="none" stroke="black" points="8,-8 8,-423 264.99,-423 264.99,-8 8,-8"/>
<text text-anchor="middle" x="136.5" y="-406.4" font-family="Times,serif" font-size="14.00">Graph Legend</text>
</g>
<!-- key -->
<g id="node1" class="node">
<title>key</title>
<text text-anchor="start" x="42.14" y="-47.2" font-family="Times,serif" font-size="14.00">reachable</text>
<text text-anchor="start" x="28.14" y="-26.4" font-family="Times,serif" font-size="14.00">unreachable</text>
</g>
<!-- key2 -->
<g id="node2" class="node">
<title>key2</title>
<text text-anchor="start" x="196.94" y="-47.2" font-family="Times,serif" font-size="14.00"> </text>
<text text-anchor="start" x="196.94" y="-26.4" font-family="Times,serif" font-size="14.00"> </text>
</g>
<!-- key&#45;&gt;key2 -->
<g id="edge1" class="edge">
<title>key:e&#45;&gt;key2:w</title>
<path fill="none" stroke="black" d="M98.95,-51C136.85,-51 149.1,-51 181.98,-51"/>
<polygon fill="black" stroke="black" points="181.93,-54.5 191.93,-51 181.93,-47.5 181.93,-54.5"/>
</g>
<!-- key&#45;&gt;key2 -->
<g id="edge2" class="edge">
<title>key:e&#45;&gt;key2:w</title>
<path fill="none" stroke="red" stroke-dasharray="1,5" d="M98.95,-31C136.85,-31 149.1,-31 181.98,-31"/>
<polygon fill="red" stroke="red" points="181.93,-34.5 191.93,-31 181.93,-27.5 181.93,-34.5"/>
</g>
<!-- while -->
<g id="node3" class="node">
<title>while</title>
<polygon fill="none" stroke="black" points="35.11,-84 88.78,-84 107.9,-120 16,-120 35.11,-84"/>
<text text-anchor="middle" x="61.95" y="-97.8" font-family="Times,serif" font-size="14.00">while</text>
</g>
<!-- for -->
<g id="node4" class="node">
<title>for</title>
<polygon fill="none" stroke="black" points="182.03,-84 218.86,-84 231.98,-120 168.91,-120 182.03,-84"/>
<text text-anchor="middle" x="200.44" y="-97.8" font-family="Times,serif" font-size="14.00">for</text>
</g>
<!-- while&#45;&gt;for -->
<!-- foreach -->
<g id="node5" class="node">
<title>foreach</title>
<polygon fill="none" stroke="black" points="167.42,-138 233.47,-138 256.99,-174 143.9,-174 167.42,-138"/>
<text text-anchor="middle" x="200.44" y="-151.8" font-family="Times,serif" font-size="14.00">foreach</text>
</g>
<!-- switch -->
<g id="node6" class="node">
<title>switch</title>
<polygon fill="none" stroke="black" points="106.76,-161.56 61.95,-174 17.14,-161.56 17.18,-141.44 106.71,-141.44 106.76,-161.56"/>
<text text-anchor="middle" x="61.95" y="-151.8" font-family="Times,serif" font-size="14.00">switch</text>
</g>
<!-- switch&#45;&gt;foreach -->
<!-- return -->
<g id="node7" class="node">
<title>return</title>
<polygon fill="none" stroke="black" points="227.44,-228 173.44,-228 173.44,-192 227.44,-192 227.44,-228"/>
<text text-anchor="middle" x="200.44" y="-205.8" font-family="Times,serif" font-size="14.00">return</text>
</g>
<!-- break -->
<g id="node8" class="node">
<title>break</title>
<polygon fill="none" stroke="black" points="227.44,-282 173.44,-282 173.44,-246 227.44,-246 227.44,-282"/>
<text text-anchor="middle" x="200.44" y="-259.8" font-family="Times,serif" font-size="14.00">break</text>
</g>
<!-- continue -->
<g id="node9" class="node">
<title>continue</title>
<polygon fill="none" stroke="black" points="94.05,-255 29.85,-255 29.85,-219 94.05,-219 94.05,-255"/>
<text text-anchor="middle" x="61.95" y="-232.8" font-family="Times,serif" font-size="14.00">continue</text>
</g>
<!-- continue&#45;&gt;return -->
<!-- continue&#45;&gt;break -->
<!-- methodDecl -->
<g id="node10" class="node">
<title>methodDecl</title>
<polygon fill="none" stroke="black" points="242.65,-390 158.23,-390 158.23,-354 242.65,-354 242.65,-390"/>
<text text-anchor="middle" x="200.44" y="-367.8" font-family="Times,serif" font-size="14.00">methodDecl</text>
</g>
<!-- methodCall -->
<g id="node11" class="node">
<title>methodCall</title>
<polygon fill="none" stroke="black" points="241.11,-336 159.78,-336 159.78,-300 241.11,-300 241.11,-336"/>
<text text-anchor="middle" x="200.44" y="-313.8" font-family="Times,serif" font-size="14.00">methodCall</text>
</g>
<!-- if -->
<g id="node12" class="node">
<title>if</title>
<polygon fill="none" stroke="black" points="61.95,-336 34.95,-318 61.95,-300 88.95,-318 61.95,-336"/>
<text text-anchor="middle" x="61.95" y="-313.8" font-family="Times,serif" font-size="14.00">if</text>
</g>
<!-- if&#45;&gt;methodCall -->
<!-- stmt -->
<g id="node13" class="node">
<title>stmt</title>
<polygon fill="none" stroke="black" points="88.95,-390 34.95,-390 34.95,-354 88.95,-354 88.95,-390"/>
<text text-anchor="middle" x="61.95" y="-367.8" font-family="Times,serif" font-size="14.00">stmt</text>
</g>
<!-- stmt&#45;&gt;methodDecl -->
</g>
</svg>
